<svg xmlns="http://www.w3.org/2000/svg" version="1.1" xmlns:xlink="http://www.w3.org/1999/xlink" xmlns:svgjs="http://svgjs.dev/svgjs" width="1000" height="189" viewBox="0 0 1000 189"><g transform="matrix(1,0,0,1,-0.6060606060606233,0.43250398378951616)"><svg viewBox="0 0 396 75" data-background-color="#444444" preserveAspectRatio="xMidYMid meet" height="189" width="1000" xmlns="http://www.w3.org/2000/svg" xmlns:xlink="http://www.w3.org/1999/xlink"><g id="tight-bounds" transform="matrix(1,0,0,1,0.2400000000000091,-0.17162856499584223)"><svg viewBox="0 0 395.52 75.34325712999167" height="75.34325712999167" width="395.52"><g><svg viewBox="0 0 517.4798982135526 98.57559928879857" height="75.34325712999167" width="395.52"><g transform="matrix(1,0,0,1,121.9598982135525,13.623689916179835)"><svg viewBox="0 0 395.52000000000004 71.3282194564389" height="71.3282194564389" width="395.52000000000004"><g id="textblocktransform"><svg viewBox="0 0 395.52000000000004 71.3282194564389" height="71.3282194564389" width="395.52000000000004" id="textblock"><g><svg viewBox="0 0 395.52000000000004 71.3282194564389" height="71.3282194564389" width="395.52000000000004"><g transform="matrix(1,0,0,1,0,0)"><svg width="395.52000000000004" viewBox="3.25 -34.900001525878906 196.8300018310547 35.5" height="71.3282194564389" data-palette-color="#ffffff"><path d="M3.25 0L3.25-34.3 16.25-34.3Q20.1-34.3 22.6-31.98 25.1-29.65 25.1-25.9L25.1-25.9Q25.1-23.05 23.63-20.93 22.15-18.8 19.85-18L19.85-18 19.85-17.8Q22.5-17 24.2-14.65 25.9-12.3 25.9-9.1L25.9-9.1Q25.9-6.3 24.6-4.25 23.3-2.2 21.1-1.1 18.9 0 16.25 0L16.25 0 3.25 0ZM7.65-19.55L14.95-19.55Q17.4-19.55 18.95-21.13 20.5-22.7 20.5-24.95L20.5-24.95Q20.5-27.6 19.1-28.95 17.7-30.3 15.25-30.3L15.25-30.3 7.65-30.3 7.65-19.55ZM7.65-4L15.65-4Q18.15-4 19.73-5.5 21.3-7 21.3-9.7L21.3-9.7Q21.3-12.1 19.65-13.83 18-15.55 15.35-15.55L15.35-15.55 7.65-15.55 7.65-4ZM30.85 0L30.85-34.3 35.25-34.3 35.25-4 49.25-4 49.25 0 30.85 0ZM64.95 0.6Q59.6 0.6 56.62-2.43 53.65-5.45 53.65-11.15L53.65-11.15 53.65-34.3 58.05-34.3 58.05-10.9Q58.05-7.3 59.87-5.38 61.7-3.45 64.95-3.45L64.95-3.45Q68.2-3.45 70.02-5.38 71.84-7.3 71.84-10.9L71.84-10.9 71.84-34.3 76.25-34.3 76.25-11.15Q76.25-5.45 73.27-2.43 70.3 0.6 64.95 0.6L64.95 0.6ZM83.24 0L83.24-34.3 104.39-34.3 104.39-30.3 87.64-30.3 87.64-19.55 102.19-19.55 102.19-15.55 87.64-15.55 87.64-4 104.69-4 104.69 0 83.24 0ZM122.69 0.6Q109.19 0.6 109.19-17.15L109.19-17.15Q109.19-34.9 122.69-34.9L122.69-34.9Q128.14-34.9 131.39-31.58 134.64-28.25 134.64-21.9L134.64-21.9 130.14-21.9Q130.14-26.3 128.14-28.58 126.14-30.85 122.69-30.85L122.69-30.85Q118.19-30.85 115.99-27.75 113.79-24.65 113.79-18.4L113.79-18.4 113.79-15.9Q113.79-9.65 115.99-6.55 118.19-3.45 122.69-3.45L122.69-3.45Q126.24-3.45 128.27-5.7 130.29-7.95 130.29-12.3L130.29-12.3 134.64-12.3Q134.64-5.9 131.42-2.65 128.19 0.6 122.69 0.6L122.69 0.6ZM140.19 0L140.19-34.3 144.59-34.3 144.59 0 140.19 0ZM158.39 0L158.39-30.3 149.03-30.3 149.03-34.3 172.14-34.3 172.14-30.3 162.78-30.3 162.78 0 158.39 0ZM184.63 0L184.63-14.2 173.53-34.3 178.38-34.3 187.08-18.4 187.28-18.4 195.83-34.3 200.08-34.3 189.03-14.2 189.03 0 184.63 0Z" opacity="1" transform="matrix(1,0,0,1,0,0)" fill="#ffffff" class="wordmark-text-0" data-fill-palette-color="primary" id="text-0"></path></svg></g></svg></g></svg></g></svg></g><g><svg viewBox="0 0 105.12101747715424 98.57559928879857" height="98.57559928879857" width="105.12101747715424"><g><svg xmlns="http://www.w3.org/2000/svg" xmlns:xlink="http://www.w3.org/1999/xlink" version="1.1" x="0" y="0" viewBox="0 3.25 99.9749984741211 93.75" enable-background="new 0 0 100 100" xml:space="preserve" height="98.57559928879857" width="105.12101747715424" class="icon-icon-0" data-fill-palette-color="accent" id="icon-0"><g fill="#00d1cd" data-fill-palette-color="accent"><path d="M76.807 73.834c-6.369 0-12.141 2.572-16.33 6.735 4.469 2.974 6.594 8.539 5.17 16.431h34.328C99.975 84.205 89.602 73.834 76.807 73.834z" fill="#00d1cd" data-fill-palette-color="accent"></path><path d="M51.088 82.439C43.046 82.439 36.53 88.96 36.53 97h29.116C65.646 88.96 59.126 82.439 51.088 82.439z" fill="#00d1cd" data-fill-palette-color="accent"></path></g><polygon points="86.682,8.988 86.682,3.25 67.216,3.25 67.216,8.988 54.658,8.988 54.675,11.671 54.671,11.671 54.671,50.426   60.847,56.482 60.847,15.357 67.496,15.357 67.496,67.202 73.672,67.202 73.672,15.357 80.333,15.357 80.333,67.202 86.509,67.202   86.509,15.357 93.605,15.357 93.605,71.563 99.975,77.113 99.975,8.988 " fill="#00d1cd" data-fill-palette-color="accent"></polygon><g fill="#00d1cd" data-fill-palette-color="accent"><path d="M51.084 56.997H21.633L18.368 97h11.793c0-11.539 9.388-20.925 20.927-20.925 1.51 0 2.98 0.167 4.4 0.473l0.503-0.497c1.522-1.512 3.187-2.818 4.95-3.945v-4.903L51.084 56.997z" fill="#00d1cd" data-fill-palette-color="accent"></path><path d="M0 41.467V97h17.96 0.353V41.467L9.079 18.91 0 41.467zM13.874 50.455c0 2.547-2.064 4.615-4.619 4.615-2.55 0-4.615-2.068-4.615-4.615 0-2.55 2.064-4.614 4.615-4.614C11.81 45.841 13.874 47.905 13.874 50.455z" fill="#00d1cd" data-fill-palette-color="accent"></path></g></svg></g></svg></g></svg></g><defs></defs></svg><rect width="395.52" height="75.34325712999167" fill="none" stroke="none" visibility="hidden"></rect></g></svg></g></svg>